<svg viewBox="0 0 512 512" xmlns="http://www.w3.org/2000/svg"><path d="m512 256c0 141.386719-114.613281 256-256 256s-256-114.613281-256-256 114.613281-256 256-256 256 114.613281 256 256zm0 0" fill="#ffdf00"/><path d="m512 256c0-12.15625-.867188-24.105469-2.503906-35.8125l-103.644532-103.644531-294.277343 108.09375 131.625 131.625-130.414063 42.132812 111.667969 111.667969c10.339844 1.273438 20.863281 1.9375 31.546875 1.9375 141.386719 0 256-114.613281 256-256zm0 0" fill="#fa0"/><path d="m165.09375 245.863281h181.8125c43.128906 0 78.09375-34.960937 78.09375-78.09375 0-43.128906-34.964844-78.09375-78.09375-78.09375h-181.8125c-43.128906 0-78.09375 34.964844-78.09375 78.09375 0 43.132813 34.964844 78.09375 78.09375 78.09375zm0 0" fill="#414952"/><path d="m346.90625 89.675781h-91.300781v156.1875h91.300781c43.128906 0 78.09375-34.960937 78.09375-78.09375 0-43.128906-34.964844-78.09375-78.09375-78.09375zm0 0" fill="#333940"/><path d="m232.375 167.042969c0 35.835937-29.050781 64.886719-64.886719 64.886719-35.835937 0-64.886719-29.050782-64.886719-64.886719 0-35.835938 29.050782-64.886719 64.886719-64.886719 35.835938 0 64.886719 29.050781 64.886719 64.886719zm0 0" fill="#fff"/><path d="m165.09375 418.503906h181.8125c43.128906 0 78.09375-34.964844 78.09375-78.09375s-34.964844-78.09375-78.09375-78.09375h-181.8125c-43.128906 0-78.09375 34.964844-78.09375 78.09375s34.964844 78.09375 78.09375 78.09375zm0 0" fill="#414952"/><path d="m346.90625 262.316406h-91.300781v156.1875h91.300781c43.128906 0 78.09375-34.964844 78.09375-78.09375s-34.964844-78.09375-78.09375-78.09375zm0 0" fill="#333940"/><path d="m408.132812 339.683594c0 35.835937-29.050781 64.886718-64.886718 64.886718-35.835938 0-64.886719-29.050781-64.886719-64.886718 0-35.835938 29.050781-64.886719 64.886719-64.886719 35.835937 0 64.886718 29.050781 64.886718 64.886719zm0 0" fill="#dce1eb"/></svg>